<?xml version="1.0" encoding="UTF-8"?>
<svg id="Layer_1" data-name="Layer 1" xmlns="http://www.w3.org/2000/svg" viewBox="0 0 59.91 60.11">
  <defs>
    <style>
      .cls-1 {
        fill: #731616;
      }
    </style>
  </defs>
  <path class="cls-1" d="M18.53,16.37c.07.09.18.13.29.12,0,0,0,0,.01,0,.11-.01.2-.08.25-.17,0-.01.2-.38.82-1.94.55-1.4.76-3.05.61-4.9-.14-1.82-2.91-1.7-3.03-1.7,0,0-.02,0-.03,0-.05,0-1.17.17-1.71,1.16-.45.82-.35,1.93.29,3.29,1.18,2.5,2.43,4.07,2.49,4.14Z"/>
  <path class="cls-1" d="M4.53,14.49c-1.37,2.42-2.3,6.82-1.3,11.19.4,1.74,1.25,2.96,2.53,3.62,1.62.83,3.4.48,4.12.17,1.48-.62,3.89-3.03,3.44-5.62-.47-2.69-3.81-2.94-3.85-2.94-.16-.01-.3.09-.34.23-.05.15.01.31.14.39l1.56.96c.92.56.79,1.36.53,2.27-.2.72-1.15,1.92-2.89,2.12-1.63.18-2.1-.13-2.52-1.65-.41-1.51-.17-2.72.91-4.64,1.27-2.25,2.4-2.97,3.89-2.5,1.76.56,3.94,2.64,4.87,6.03.81,2.98-.4,3.96-1.81,5.09l-.25.2c-.23.19-.48.37-.72.55-1.45,1.06-3.1,2.27-3.02,5.52.04,1.69.51,2.9,1.41,3.58.6.45,1.38.65,2.15.54.11-.01.21-.03.32-.06.99-.25,1.1-.97,1.16-1.36,0-.04.01-.08.02-.12.22-.09.21-.31.21-.34,0-.07-.05-.32-.4-.31-1.42.03-1.77-.33-1.85-.45-.47-.7-.79-1.59.39-2.83.31-.33.67-.68,1.05-1.04,1.22-1.18,2.73-2.64,4.17-4.88,2-3.12.21-6.16-.97-8.17-.44-.74-1.05-1.55-1.7-2.41-1.15-1.53-2.46-3.26-3.18-5.13-1.05-2.73,1.72-5.34,1.75-5.36.12-.11.14-.28.06-.42-.08-.14-.25-.2-.4-.15-.25.09-6.27,2.2-9.48,7.89Z"/>
  <path class="cls-1" d="M37.01,17.45c.05-2.21-.46-3.86-1.51-4.9-1.11-1.09-2.42-1.12-2.62-1.12-.3-.02-2.91-.17-4.25,2.29-1.4,2.56.51,6.15.59,6.3.08.15.25.21.4.16.16-.05.25-.21.23-.37-.09-.61-.27-2.35.04-3.05.67-1.51,1.57-2.09,2.69-1.72.31.1.54.32.71.66.57,1.15.21,3.41-.39,5.13-.65,1.86-.09,3.95.45,5.96.19.7.38,1.41.52,2.12.43,2.09.32,2.12-.55,2.34-.15.04-.31.08-.48.13-1.29.39-3.91-.73-6.52-2.78-2.48-1.95-2.3-3.93-2.14-5.68l.03-.32c.13-1.5,1.23-4.93,1.89-6.98.14-.43.26-.8.34-1.07l.11-.34c.45-1.45.97-3.08.46-5.48-.55-2.6-3.22-3.47-4.99-4.05l-.18-.06c-1.79-.59-2.38-.21-2.52-.08-.09.08-.12.2-.1.32.03.12.11.21.23.25.02,0,1.53.5,2.78,1.76,1.22,1.23,1.21,2.87,1.18,5.35v.08c-.01,1.17-.5,2.89-1.01,4.71-.57,2.01-1.16,4.09-1.23,5.82-.23,5.54,2.13,7.03,4.87,8.75.29.18.59.37.89.57,3.15,2.05,12.03,3.69,12.41,3.76.04,0,.07,0,.11,0,.07,0,.14-.04.19-.09.08-.07.12-.18.1-.29,0-.06-.22-1.57-1.03-3.37-.77-1.73-1.19-3.05-1.19-3.05-1.31-5.53-1.14-6.53-.84-8.2.14-.79.31-1.78.35-3.46Z"/>
  <path class="cls-1" d="M1.04,25.27c-.16-.03-.32.07-.37.22-.05.15-1.25,3.68-.31,6.37.48,1.37,1.13,2.21,1.95,2.48.26.09.52.11.78.07s.51-.13.73-.28c.8-.53,1.28-2.29,1.01-3.07-.25-.72-.71-.94-1.93-1.54l-.34-.16c-1.02-.5-1.24-2.89-1.24-3.77,0-.16-.12-.3-.28-.33Z"/>
  <path class="cls-1" d="M59.09,30.11c-.13-1.21-.55-2.18-.95-3.12-.18-.41-.34-.81-.48-1.21-.43-1.25-.44-1.86-.36-2.96.04-.53.16-.88.38-1.07.18-.15.43-.21.79-.18.66.05.59,1.48.59,1.49-.01.17.1.32.27.35.17.03.33-.06.39-.22,0-.02.15-.43.19-1.19.03-.62-.22-1.06-.38-1.35-.04-.07-.09-.16-.1-.19-.18-.57-1.49-.77-2.15-.75-1.41.04-2.3.67-2.67,1.86-.44,1.45-.17,3.43.76,5.74.84,2.05.71,2.45.48,3.16l-.02.05c-.22.68-.65,1.32-2.28,1.42-3.32.21-4.79-2.4-5.97-4.51l-.2-.36c-1.68-2.98-1.36-8.09-.86-9.53.61-1.74,1.63-3.18,2.41-3.43,1.06-.33,1.82-.35,2.74.5.98.9.68,2.86.03,3.87-.56.87-1.47.91-2.2.93-.12,0-.24,0-.34.02-.51.04-1.35-.36-1.64-.52-.12-.07-.27-.05-.38.04-.11.09-.15.24-.1.37.07.21.52.6,1.32,1.17,1.18.83,2.17,1.06,3.45.79.6-.13,1.33-.78,1.9-1.71.44-.7,1.39-2.57.84-4.75-.61-2.39-3.57-4.91-5.95-6.94-.87-.74-1.61-1.37-2.13-1.91-1.53-1.56-2.01-2.24-2.14-2.45-.04-.07-.06-.11-.06-.11-.1-.15-.29-.2-.44-.11-.15.08-.22.27-.15.43,0,.01.02.05.06.12.09.17.3.64.4,1.38.14,1-.04,3.02-.56,6.54-.67,4.44-.69,8.35-.08,11.97.92,5.42,4.71,8.53,6.3,9.62,2.38,1.62,4.27,1.94,5.69,1.75.6-.08,1.11-.26,1.54-.46,2.17-1.05,2.21-3.1,2.05-4.55Z"/>
  <path class="cls-1" d="M12.48,51.45c-.11.03-.19.11-.22.2-.21-.04-.79-.26-2.22-1.26-.95-.67-1.37-1.46-1.24-2.34.17-1.11,1.18-2.12,1.81-2.32.34-.11,3.52-.91,9.07,5.57,4.53,5.28,9.84,9.74,17.89,8.64,2.41-.33,5.07-1.16,8.03-2.62,3.04-1.5,4.94-3.65,5.64-6.39,1.44-5.59-2.58-11.58-3.04-12.25-.44-.63-.91-1.18-1.41-1.75-1.44-1.67-3.08-3.57-4.62-8.36-1.57-4.9-1.19-8.79-.78-12.92.13-1.3.26-2.64.34-4.05.32-5.81-1.1-8.17-2.38-9.59-1.12-1.24-2.84-1.96-2.91-1.99-.13-.05-.28-.02-.38.08-.1.1-.12.25-.05.38,0,.01.56,1.11.74,1.85.16.64-.15,1.28-.95,2.57-.2.32-.4.58-.6.83-.6.76-1.12,1.42-.54,2.78.34.79,1.24,1.6,2.19,2.45,1.05.94,2.13,1.92,2.39,2.81.27.93.14,2.43-.02,4.33-.14,1.64-.29,3.49-.25,5.54.18,7.93,2.7,10.99,4.37,13.02l.15.19c3.18,3.87,4.28,7.71,3.29,11.41-.61,2.28-2.02,4.06-4.16,5.29-3.35,1.92-7.82,2.01-9.79,1.47-7.03-1.94-11.49-5.97-14.45-8.64-.62-.56-1.16-1.04-1.63-1.43-2.83-2.31-6.72-2.91-8.66-1.34-1.27,1.02-1.93,2.69-1.72,4.36.21,1.67,1.27,3.06,2.92,3.82,2.41,1.11,3.08.89,3.38.63.27-.23.25-.57.2-.74-.05-.17-.24-.27-.41-.23Z"/>
</svg>